<svg width="36" height="36" viewBox="0 0 36 36" fill="none" xmlns="http://www.w3.org/2000/svg">
<path d="M25.1249 5.34024V3.00024C25.1249 2.38524 24.6149 1.87524 23.9999 1.87524C23.3849 1.87524 22.8749 2.38524 22.8749 3.00024V5.25024H13.1249V3.00024C13.1249 2.38524 12.6149 1.87524 11.9999 1.87524C11.3849 1.87524 10.8749 2.38524 10.8749 3.00024V5.34024C6.82485 5.71524 4.85986 8.13024 4.55986 11.7152C4.52986 12.1502 4.88986 12.5102 5.30986 12.5102H30.6899C31.1249 12.5102 31.4849 12.1352 31.4399 11.7152C31.1399 8.13024 29.1749 5.71524 25.1249 5.34024Z" fill="#7E899E"/>
<path opacity="0.4" d="M31.5 16.2601V18.8701C31.5 19.7851 30.69 20.4901 29.79 20.3401C29.37 20.2801 28.935 20.2351 28.5 20.2351C23.955 20.2351 20.25 23.9401 20.25 28.4851C20.25 29.1751 20.52 30.1352 20.805 31.0052C21.135 31.9802 20.415 32.9851 19.38 32.9851H12C6.75 32.9851 4.5 29.9851 4.5 25.4851V16.2451C4.5 15.4201 5.175 14.7451 6 14.7451H30C30.825 14.7601 31.5 15.4351 31.5 16.2601Z" fill="#7E899E"/>
<path d="M28.5 22.5C25.185 22.5 22.5 25.185 22.5 28.5C22.5 29.625 22.815 30.69 23.37 31.59C24.405 33.33 26.31 34.5 28.5 34.5C30.69 34.5 32.595 33.33 33.63 31.59C34.185 30.69 34.5 29.625 34.5 28.5C34.5 25.185 31.815 22.5 28.5 22.5ZM31.605 27.855L28.41 30.81C28.2 31.005 27.915 31.11 27.645 31.11C27.36 31.11 27.075 31.005 26.85 30.78L25.365 29.295C24.93 28.86 24.93 28.14 25.365 27.705C25.8 27.27 26.52 27.27 26.955 27.705L27.675 28.425L30.075 26.205C30.525 25.785 31.245 25.815 31.665 26.265C32.085 26.715 32.055 27.42 31.605 27.855Z" fill="#7E899E"/>
<path d="M12.75 22.4999C12.36 22.4999 11.97 22.3349 11.685 22.0649C11.415 21.7799 11.25 21.3899 11.25 20.9999C11.25 20.6099 11.415 20.2199 11.685 19.9349C12.03 19.5899 12.555 19.4249 13.05 19.5299C13.14 19.5449 13.23 19.5748 13.32 19.6198C13.41 19.6498 13.5 19.6949 13.59 19.7549C13.665 19.8149 13.74 19.8749 13.815 19.9349C14.085 20.2199 14.25 20.6099 14.25 20.9999C14.25 21.3899 14.085 21.7799 13.815 22.0649C13.74 22.1249 13.665 22.1848 13.59 22.2448C13.5 22.3048 13.41 22.3499 13.32 22.3799C13.23 22.4249 13.14 22.4549 13.05 22.4699C12.945 22.4849 12.84 22.4999 12.75 22.4999Z" fill="#7E899E"/>
<path d="M18 22.5C17.61 22.5 17.22 22.335 16.935 22.065C16.665 21.78 16.5 21.39 16.5 21C16.5 20.61 16.665 20.22 16.935 19.935C17.505 19.38 18.51 19.38 19.065 19.935C19.335 20.22 19.5 20.61 19.5 21C19.5 21.39 19.335 21.78 19.065 22.065C18.78 22.335 18.39 22.5 18 22.5Z" fill="#7E899E"/>
<path d="M12.75 27.7498C12.36 27.7498 11.97 27.5848 11.685 27.3148C11.415 27.0298 11.25 26.6398 11.25 26.2498C11.25 25.8598 11.415 25.4698 11.685 25.1848C11.835 25.0498 11.985 24.9448 12.18 24.8698C12.735 24.6298 13.395 24.7648 13.815 25.1848C14.085 25.4698 14.25 25.8598 14.25 26.2498C14.25 26.6398 14.085 27.0298 13.815 27.3148C13.53 27.5848 13.14 27.7498 12.75 27.7498Z" fill="#7E899E"/>
</svg>
