<svg width="32" height="32" viewBox="0 0 32 32" fill="none" xmlns="http://www.w3.org/2000/svg">
<path d="M6.76904 16.0015V9.93223C6.78707 8.73923 7.04031 7.5615 7.51429 6.46654C7.98824 5.37159 8.67363 4.3809 9.53112 3.55128C10.3886 2.72164 11.4014 2.06937 12.5114 1.63183C13.6214 1.19428 14.8069 0.98007 15.9998 1.00146C17.1927 0.98007 18.3782 1.19428 19.4882 1.63183C20.5982 2.06937 21.611 2.72164 22.4685 3.55128C23.326 4.3809 24.0114 5.37159 24.4854 6.46654C24.9592 7.5615 25.2126 8.73923 25.2306 9.93223V16.0015" stroke="#7E899E" stroke-linecap="round" stroke-linejoin="round"/>
<path d="M3.30769 12.5393H5.61538C5.92141 12.5393 6.2149 12.6609 6.43127 12.8773C6.64766 13.0936 6.76923 13.3871 6.76923 13.6932V20.6162C6.76923 20.9223 6.64766 21.2157 6.43127 21.4321C6.2149 21.6485 5.92141 21.7701 5.61538 21.7701H3.30769C2.69565 21.7701 2.10868 21.5269 1.67591 21.0942C1.24313 20.6614 1 20.0744 1 19.4624V14.847C1 14.235 1.24313 13.648 1.67591 13.2152C2.10868 12.7824 2.69565 12.5393 3.30769 12.5393Z" fill="#BEC3CD"/>
<path d="M28.6925 21.7701H26.3848C26.0788 21.7701 25.7853 21.6485 25.5688 21.4321C25.3526 21.2157 25.231 20.9223 25.231 20.6162V13.6932C25.231 13.3871 25.3526 13.0936 25.5688 12.8773C25.7853 12.6609 26.0788 12.5393 26.3848 12.5393H28.6925C29.3045 12.5393 29.8916 12.7824 30.3243 13.2152C30.757 13.648 31.0002 14.235 31.0002 14.847V19.4624C31.0002 20.0744 30.757 20.6614 30.3243 21.0942C29.8916 21.5269 29.3045 21.7701 28.6925 21.7701Z" fill="#BEC3CD"/>
<path d="M20.6152 28.1165C21.8393 28.1165 23.0132 27.6303 23.8788 26.7647C24.7444 25.8991 25.2306 24.7251 25.2306 23.5011V18.3088" stroke="#7E899E" stroke-linecap="round" stroke-linejoin="round"/>
<path d="M20.6155 28.1165C20.6155 28.8815 20.3116 29.6154 19.7706 30.1563C19.2297 30.6972 18.496 31.0012 17.7309 31.0012H14.2694C13.5043 31.0012 12.7706 30.6972 12.2297 30.1563C11.6887 29.6154 11.3848 28.8815 11.3848 28.1165C11.3848 27.3515 11.6887 26.6177 12.2297 26.0768C12.7706 25.5359 13.5043 25.2319 14.2694 25.2319H17.7309C18.496 25.2319 19.2297 25.5359 19.7706 26.0768C20.3116 26.6177 20.6155 27.3515 20.6155 28.1165Z" fill="#BEC3CD"/>
<path d="M3.30769 12.5393H5.61538C5.92141 12.5393 6.2149 12.6609 6.43127 12.8773C6.64766 13.0936 6.76923 13.3871 6.76923 13.6932V20.6162C6.76923 20.9223 6.64766 21.2157 6.43127 21.4321C6.2149 21.6485 5.92141 21.7701 5.61538 21.7701H3.30769C2.69565 21.7701 2.10868 21.5269 1.67591 21.0942C1.24313 20.6614 1 20.0744 1 19.4624V14.847C1 14.235 1.24313 13.648 1.67591 13.2152C2.10868 12.7824 2.69565 12.5393 3.30769 12.5393Z" stroke="#7E899E" stroke-linecap="round" stroke-linejoin="round"/>
<path d="M28.6925 21.7701H26.3848C26.0788 21.7701 25.7853 21.6485 25.5688 21.4321C25.3526 21.2157 25.231 20.9223 25.231 20.6162V13.6932C25.231 13.3871 25.3526 13.0936 25.5688 12.8773C25.7853 12.6609 26.0788 12.5393 26.3848 12.5393H28.6925C29.3045 12.5393 29.8916 12.7824 30.3243 13.2152C30.757 13.648 31.0002 14.235 31.0002 14.847V19.4624C31.0002 20.0744 30.757 20.6614 30.3243 21.0942C29.8916 21.5269 29.3045 21.7701 28.6925 21.7701Z" stroke="#7E899E" stroke-linecap="round" stroke-linejoin="round"/>
<path d="M20.6155 28.1165C20.6155 28.8815 20.3116 29.6154 19.7706 30.1563C19.2297 30.6972 18.496 31.0012 17.7309 31.0012H14.2694C13.5043 31.0012 12.7706 30.6972 12.2297 30.1563C11.6887 29.6154 11.3848 28.8815 11.3848 28.1165C11.3848 27.3515 11.6887 26.6177 12.2297 26.0768C12.7706 25.5359 13.5043 25.2319 14.2694 25.2319H17.7309C18.496 25.2319 19.2297 25.5359 19.7706 26.0768C20.3116 26.6177 20.6155 27.3515 20.6155 28.1165Z" stroke="#7E899E" stroke-linecap="round" stroke-linejoin="round"/>
</svg>
