<svg width="26" height="26" viewBox="0 0 26 26" fill="none" xmlns="http://www.w3.org/2000/svg">
<path d="M25.0001 12.0002H17C16.4477 12.0002 16 12.448 16 13.0003V25.0003C16 25.5525 16.4477 26.0003 17 26.0003H25.0001C25.5523 26.0003 26.0001 25.5525 26.0001 25.0003V13.0003C26.0001 12.448 25.5523 12.0002 25.0001 12.0002Z" fill="#E9EAEC"/>
<path d="M25.0001 0H17C16.4477 0 16 0.447719 16 1.00001V5.02004C16 5.57232 16.4477 6.02004 17 6.02004H25.0001C25.5523 6.02004 26.0001 5.57232 26.0001 5.02004V1.00001C26.0001 0.447719 25.5523 0 25.0001 0Z" fill="#E9EAEC"/>
<path d="M9.00006 0H1.00001C0.447719 0 0 0.447719 0 1.00001V13.0001C0 13.5524 0.447719 14.0001 1.00001 14.0001H9.00006C9.55235 14.0001 10.0001 13.5524 10.0001 13.0001V1.00001C10.0001 0.447719 9.55235 0 9.00006 0Z" fill="#E9EAEC"/>
<path d="M9.00006 19.9812H1.00001C0.447719 19.9812 0 20.429 0 20.9812V25.0012C0 25.5534 0.447719 26.0012 1.00001 26.0012H9.00006C9.55235 26.0012 10.0001 25.5534 10.0001 25.0012V20.9812C10.0001 20.429 9.55235 19.9812 9.00006 19.9812Z" fill="#E9EAEC"/>
<path opacity="0.4" d="M24.9 12H16.1C15.4925 12 15 12.4477 15 13V25C15 25.5522 15.4925 26 16.1 26H24.9C25.5074 26 26 25.5522 26 25V13C26 12.4477 25.5074 12 24.9 12Z" fill="#7E899E"/>
<path d="M24.9 0H16.1C15.4925 0 15 0.5206 15 1.16279V5.83721C15 6.47939 15.4925 7 16.1 7H24.9C25.5074 7 26 6.47939 26 5.83721V1.16279C26 0.5206 25.5074 0 24.9 0Z" fill="#7E899E"/>
<path opacity="0.4" d="M9.9 0H1.1C0.492488 0 0 0.447716 0 1V13C0 13.5523 0.492488 14 1.1 14H9.9C10.5075 14 11 13.5523 11 13V1C11 0.447716 10.5075 0 9.9 0Z" fill="#7E899E"/>
<path d="M9.9 19H1.1C0.492488 19 0 19.5205 0 20.1628V24.8372C0 25.4793 0.492488 26 1.1 26H9.9C10.5075 26 11 25.4793 11 24.8372V20.1628C11 19.5205 10.5075 19 9.9 19Z" fill="#7E899E"/>
</svg>
