<svg width="42" height="42" viewBox="0 0 42 42" fill="none" xmlns="http://www.w3.org/2000/svg">
<path d="M38.5 37.1875H3.5C2.7825 37.1875 2.1875 37.7825 2.1875 38.5C2.1875 39.2175 2.7825 39.8125 3.5 39.8125H38.5C39.2175 39.8125 39.8125 39.2175 39.8125 38.5C39.8125 37.7825 39.2175 37.1875 38.5 37.1875Z" fill="#7E899E"/>
<path opacity="0.4" d="M29.75 3.5H12.25C7 3.5 5.25 6.6325 5.25 10.5V38.5H36.75V10.5C36.75 6.6325 35 3.5 29.75 3.5Z" fill="#7E899E"/>
<path d="M24.6049 26.25H17.3774C16.4849 26.25 15.7324 26.985 15.7324 27.895V38.5H26.2324V27.895C26.2499 26.985 25.5149 26.25 24.6049 26.25Z" fill="#7E899E"/>
<path d="M25.375 13.5625H22.3125V10.5C22.3125 9.7825 21.7175 9.1875 21 9.1875C20.2825 9.1875 19.6875 9.7825 19.6875 10.5V13.5625H16.625C15.9075 13.5625 15.3125 14.1575 15.3125 14.875C15.3125 15.5925 15.9075 16.1875 16.625 16.1875H19.6875V19.25C19.6875 19.9675 20.2825 20.5625 21 20.5625C21.7175 20.5625 22.3125 19.9675 22.3125 19.25V16.1875H25.375C26.0925 16.1875 26.6875 15.5925 26.6875 14.875C26.6875 14.1575 26.0925 13.5625 25.375 13.5625Z" fill="#7E899E"/>
</svg>
