<svg width="75" height="74" viewBox="0 0 75 74" fill="none" xmlns="http://www.w3.org/2000/svg">
<path d="M46.772 0.544516C45.7784 0.792905 43.1875 1.57473 42.8136 2.30131C42.4002 3.10484 46.2241 2.93012 47.7961 3.10484C50.773 3.43573 52.1571 3.863 54.4529 4.64104C56.4829 5.32896 58.0796 6.05648 59.9116 7.16891C61.2366 7.97341 62.7365 9.18663 63.8492 10.2423L63.9191 10.3086C65.0119 11.3449 66.1795 12.4522 66.9761 14.2127C67.8995 16.2535 68.2755 17.311 68.7908 19.4909C69.1539 21.0271 69.7184 22.4373 68.7908 26.1478C68.2787 28.196 68.2787 28.196 66.1233 29.2202C65.5988 29.4694 64.7319 29.625 63.8492 29.5274C62.3487 29.3616 61.4755 29.1224 60.1538 28.393C57.0133 26.6598 54.4529 24.0995 52.7629 22.4373C49.4642 19.1929 47.5749 17.4146 44.235 14.2127C41.6872 11.7703 40.4812 10.1422 37.6969 7.97341C35.0992 5.94994 33.5548 4.86904 30.5903 3.43573C27.9354 2.15212 26.355 1.55495 23.4837 0.883279C20.9765 0.296811 19.1303 -0.122561 16.5601 0.0324416C14.5119 0.155971 12.8071 0.637338 10.4075 1.7341C8.22483 2.73171 7.02478 3.47833 5.29074 5.13736C3.51243 6.83874 2.61581 8.00269 1.5953 10.2423C0.603794 12.4182 0.456053 13.8235 0.173978 16.198C-0.113458 18.6176 0.00490405 20.0066 0.173978 22.4373C0.407728 25.7979 0.86697 27.6564 1.5953 30.9455C2.31579 34.199 2.87478 35.9895 3.86942 39.17C5.31302 43.7862 6.35858 46.2986 8.13338 50.7978C9.40933 54.0325 10.0355 55.8897 11.5446 59.0224C12.8572 61.7473 13.5646 63.4396 15.0239 66.0889C16.1249 68.0875 16.6598 69.1499 18.0826 70.9338C19.0605 72.1597 19.1204 72.2337 19.6325 72.7457C20.339 73.4522 21.7058 73.7699 22.7049 73.7699C23.4837 73.7699 24.2411 73.2578 24.7532 72.7457C24.9077 72.5912 26.1524 71.6203 26.8014 69.6733C27.8255 66.6009 27.9025 65.1918 28.3376 63.0165C28.8497 60.4562 29.802 58.6232 30.3859 56.8717C30.8979 55.3355 31.3031 54.2505 31.9221 53.2872C32.5801 52.2631 33.9703 51.239 36.0186 51.239C38.0669 51.239 38.5789 51.751 39.6031 52.7752C40.3395 53.5117 40.4306 53.689 41.1392 54.8234C42.5087 57.0157 43.0586 58.4224 44.235 60.724C44.8832 61.9924 46.3277 65.8568 47.0776 67.5305C47.8275 69.2043 48.5725 70.6383 48.9524 71.436C49.3323 72.2337 49.9148 73.4021 50.8685 73.7699C51.5935 74.0495 52.7629 74.1028 53.4288 73.7699C54.4529 73.2578 54.8536 72.6355 55.4771 71.7216C56.5949 70.083 61.7174 61.9924 62.646 59.9441C63.2225 58.6725 65.8146 53.1591 66.9761 50.7978C67.7666 49.1907 71.5282 39.9027 70.6715 39.17C69.8149 38.4374 65.3932 45.5406 62.646 49.6634C61.5751 51.2705 57.0133 58.4552 57.0133 58.4552C57.0133 58.4552 54.1452 62.5675 52.7629 63.5601C51.3806 64.5527 50.6133 58.8413 49.0675 55.9027C48.0051 53.8833 47.6468 52.5824 46.2248 50.7978C44.5081 48.6433 43.3335 47.3961 40.8238 46.2601C39.1561 45.5053 37.8466 45.5085 36.0186 45.6063C34.5111 45.6869 33.9478 45.6212 32.5801 46.2601C30.5702 47.1991 29.4976 47.9982 28.0319 49.6634C26.7511 51.1186 26.3641 52.1955 25.4735 53.9175C24.5846 55.6362 24.3572 57.1922 23.729 59.0224C22.9503 61.2912 22.7047 63.4786 20.9253 62.7093C18.0826 61.4803 15.2029 51.6942 12.3973 44.2749C11.3193 41.4239 10.7492 39.8101 9.83897 36.9012C9.11644 34.5922 8.66246 33.3062 8.13338 30.9455C7.47225 27.9955 7.19503 26.3047 6.99632 23.2881C6.83617 20.8568 6.54327 19.4429 6.99632 17.0488C7.36767 15.0864 7.63941 13.9186 8.70191 12.2275C9.78643 10.5013 10.6405 9.57472 12.3973 8.54062C14.0007 7.59685 15.0988 7.34847 16.9456 7.1226C19.5013 6.81001 21.0378 7.16879 23.4837 7.97341C25.3299 8.58079 26.5486 9.25398 28.2298 10.1827L28.3376 10.2423C30.87 11.6409 31.9556 12.4983 34.2857 14.2127C37.0083 16.216 38.322 17.6118 40.8238 19.8848C42.9719 21.8365 44.1447 22.9658 46.2248 24.9897C48.0231 26.7394 48.9318 27.8231 50.773 29.5274C52.9094 31.5049 54.0029 32.7849 56.4583 34.3487C58.3418 35.5483 59.3886 36.4476 61.5751 36.9012C63.3143 37.2619 64.3971 37.3196 66.1233 36.9012C68.1028 36.4213 69.2026 35.7596 70.6715 34.3487C72.248 32.8347 72.6873 31.5507 73.5142 29.5274C74.7473 26.5102 74.9271 24.5624 74.9355 21.3029C74.9422 18.7338 74.805 17.2454 74.0827 14.7799C73.2469 11.9266 72.4455 10.3595 70.6715 7.97341C69.1746 5.95993 68.2009 4.84237 66.1233 3.43573C64.0238 2.01428 62.201 1.44819 60.1538 0.883279C58.9261 0.544516 56.3339 0.0749002 53.4288 0.0324631C51.2065 0 48.8202 0.0324512 46.772 0.544516Z" fill="#3D5CEF"/>
</svg>
