<svg width="37" height="37" viewBox="0 0 37 37" fill="none" xmlns="http://www.w3.org/2000/svg">
<path d="M18.5312 4.48611C13.4282 4.48611 9.28115 8.6332 9.28115 13.7361V18.1915C9.28115 19.1319 8.88032 20.5657 8.4024 21.3674L6.62949 24.3119C5.5349 26.1311 6.29032 28.1507 8.29449 28.829C14.9391 31.049 22.1078 31.049 28.7524 28.829C30.6178 28.2124 31.4349 26.0078 30.4174 24.3119L28.6445 21.3674C28.182 20.5657 27.7812 19.1319 27.7812 18.1915V13.7361C27.7812 8.64861 23.6187 4.48611 18.5312 4.48611Z" stroke="#3D5CEF" stroke-width="1.5" stroke-miterlimit="10" stroke-linecap="round"/>
<path d="M21.3829 4.93324C20.905 4.79449 20.4116 4.68657 19.9029 4.6249C18.4229 4.4399 17.0045 4.54782 15.6787 4.93324C16.1258 3.7924 17.2358 2.99074 18.5308 2.99074C19.8258 2.99074 20.9358 3.7924 21.3829 4.93324Z" stroke="#3D5CEF" stroke-width="1.5" stroke-miterlimit="10" stroke-linecap="round" stroke-linejoin="round"/>
<path d="M23.1558 29.3843C23.1558 31.928 21.0745 34.0093 18.5308 34.0093C17.2666 34.0093 16.0949 33.4851 15.2624 32.6526C14.4299 31.8201 13.9058 30.6484 13.9058 29.3843" stroke="#3D5CEF" stroke-width="1.5" stroke-miterlimit="10"/>
</svg>
