<svg width="36" height="36" viewBox="0 0 36 36" fill="none" xmlns="http://www.w3.org/2000/svg">
<path opacity="0.4" d="M32.61 14.16H3V9.63C3 5.97 5.97 3 9.63 3H13.125C15.57 3 16.335 3.795 17.31 5.1L19.41 7.89C19.875 8.505 19.935 8.595 20.805 8.595H24.99C28.545 8.58 31.575 10.92 32.61 14.16Z" fill="#7E899E"/>
<path d="M32.985 16.2599C32.955 15.5249 32.835 14.8349 32.61 14.1599H3V24.9749C3 29.3999 6.6 32.9999 11.025 32.9999H24.975C29.4 32.9999 33 29.3999 33 24.9749V16.6049C33 16.4999 33 16.3649 32.985 16.2599ZM21.81 23.9549L18.585 26.7749C18.42 26.9249 18.21 26.9999 18 26.9999C17.79 26.9999 17.58 26.9249 17.415 26.7749L14.19 23.9549C13.17 23.0549 13.035 21.5249 13.875 20.4599C14.745 19.3799 16.275 19.1849 17.385 20.0099L17.985 20.4599L18.585 20.0099C19.695 19.1849 21.225 19.3799 22.095 20.4599C22.965 21.5249 22.83 23.0549 21.81 23.9549Z" fill="#7E899E"/>
</svg>
