<svg width="32" height="32" viewBox="0 0 32 32" fill="none" xmlns="http://www.w3.org/2000/svg">
<path d="M24.0769 4.46154V12.5385H31V4.46154C31 3.54349 30.6354 2.66302 29.9862 2.01386C29.3371 1.3647 28.4564 1 27.5384 1C26.6204 1 25.7398 1.3647 25.0907 2.01386C24.4415 2.66302 24.0769 3.54349 24.0769 4.46154Z" fill="#E9EAEC"/>
<path d="M5.61538 1H27.5385C26.6205 1 25.7398 1.3647 25.0907 2.01386C24.4415 2.66302 24.0769 3.54349 24.0769 4.46154V31L18.3077 27.5385L12.5385 31L6.76923 27.5385L1 31V5.61538C1 4.39132 1.48626 3.21737 2.35182 2.35182C3.21737 1.48626 4.39132 1 5.61538 1Z" fill="#7E899E"/>
<path d="M27.5385 1H5.61538C4.39132 1 3.21737 1.48626 2.35182 2.35182C1.48626 3.21737 1 4.39132 1 5.61538V31L6.76923 27.5385L12.5385 31L18.3077 27.5385L24.0769 31V4.46154C24.0769 3.54349 24.4415 2.66302 25.0907 2.01386C25.7398 1.3647 26.6205 1 27.5385 1ZM27.5385 1C28.4565 1 29.3371 1.3647 29.9862 2.01386C30.6354 2.66302 31 3.54349 31 4.46154V12.5385H24.0769" stroke="#7E899E" stroke-linecap="round" stroke-linejoin="round"/>
<path d="M16.4661 10.7443C16.331 10.3622 16.1226 10.0146 15.8577 9.71868C15.2943 9.08919 14.4755 8.69305 13.5642 8.69305H11.1826C9.66571 8.69305 8.43604 9.92273 8.43604 11.4396C8.43604 12.7303 9.33477 13.8469 10.5957 14.1227L14.2218 14.9159C15.6343 15.2249 16.6412 16.4767 16.6412 17.9227C16.6412 19.622 15.2636 21.0007 13.5642 21.0007H11.513C10.1732 21.0007 9.03352 20.1445 8.61112 18.9495" stroke="#E9EAEC" stroke-linecap="round" stroke-linejoin="round"/>
<path d="M12.5386 8.69221V5.6153" stroke="#E9EAEC" stroke-linecap="round" stroke-linejoin="round"/>
<path d="M12.5386 24.0773V21.0004" stroke="#E9EAEC" stroke-linecap="round" stroke-linejoin="round"/>
</svg>
