<svg width="20" height="20" viewBox="0 0 20 20" fill="none" xmlns="http://www.w3.org/2000/svg">
<path d="M9.99962 11.3846C11.9114 11.3846 13.4612 9.83484 13.4612 7.92309C13.4612 6.01133 11.9114 4.46155 9.99962 4.46155C8.08787 4.46155 6.53809 6.01133 6.53809 7.92309C6.53809 9.83484 8.08787 11.3846 9.99962 11.3846Z" fill="white"/>
<path d="M15.9145 16.7841C14.3328 18.1641 12.2642 19 10.0002 19C7.73628 19 5.66758 18.1641 4.08594 16.7841C5.30149 14.7916 7.49551 13.4615 10.0002 13.4615C12.5049 13.4615 14.6989 14.7916 15.9145 16.7841Z" fill="white"/>
<path fill-rule="evenodd" clip-rule="evenodd" d="M4.08571 16.7841C5.30127 14.7916 7.4953 13.4615 10 13.4615C12.5047 13.4615 14.6987 14.7916 15.9142 16.7841C17.8052 15.1342 19 12.7066 19 10C19 5.02944 14.9706 1 10 1C5.02944 1 1 5.02944 1 10C1 12.7066 2.19478 15.1342 4.08571 16.7841ZM10 11.3846C11.9118 11.3846 13.4615 9.83483 13.4615 7.92308C13.4615 6.01132 11.9118 4.46154 10 4.46154C8.08825 4.46154 6.53846 6.01132 6.53846 7.92308C6.53846 9.83483 8.08825 11.3846 10 11.3846Z" fill="#E9EAEC"/>
<path d="M9.99962 11.3846C11.9114 11.3846 13.4612 9.83484 13.4612 7.92309C13.4612 6.01133 11.9114 4.46155 9.99962 4.46155C8.08787 4.46155 6.53809 6.01133 6.53809 7.92309C6.53809 9.83484 8.08787 11.3846 9.99962 11.3846Z" stroke="#7E899E" stroke-width="1.5" stroke-linecap="round" stroke-linejoin="round"/>
<path d="M4.08691 16.7846C4.70478 15.7703 5.57317 14.9321 6.60859 14.3506C7.644 13.7689 8.81162 13.4634 9.99922 13.4634C11.1868 13.4634 12.3544 13.7689 13.3899 14.3506C14.4253 14.9321 15.2936 15.7703 15.9116 16.7846" stroke="#7E899E" stroke-width="1.5" stroke-linecap="round" stroke-linejoin="round"/>
<path d="M10 19C14.9706 19 19 14.9706 19 10C19 5.02944 14.9706 1 10 1C5.02944 1 1 5.02944 1 10C1 14.9706 5.02944 19 10 19Z" stroke="#7E899E" stroke-width="1.5" stroke-linecap="round" stroke-linejoin="round"/>
</svg>
